<svg width="16" height="16" fill="none" xmlns="http://www.w3.org/2000/svg"><style>path{fill:#353131}@media (prefers-color-scheme:dark){path{fill:#fff}}</style><path fill-rule="evenodd" clip-rule="evenodd" d="M16 8.471c-.472-.521-.822-1.168-.945-1.877a4.144 4.144 0 01.123-2.127 7.418 7.418 0 00-1.89-2.482 4.004 4.004 0 01-2.053-.417A4.321 4.321 0 019.653.17C8.606-.038 7.558-.059 6.573.13A3.988 3.988 0 014.97 1.505a3.788 3.788 0 01-2.074.355A7.984 7.984 0 00.945 4.279c.185.667.226 1.397.082 2.127A4.01 4.01 0 010 8.262c.02 1.064.226 2.107.637 3.045.636.25 1.212.668 1.684 1.293.452.585.719 1.294.821 1.96a8.114 8.114 0 002.773 1.398 4.173 4.173 0 012.034-.542c.74 0 1.417.209 2.033.584a7.37 7.37 0 002.793-1.335c.124-.688.39-1.355.863-1.94a4.02 4.02 0 011.725-1.23c.206-.459.39-.96.514-1.48.061-.46.102-1.023.123-1.544zM13 8A5 5 0 113 8a5 5 0 0110 0zM8 2a.5.5 0 100-1 .5.5 0 000 1z"/></svg>